<svg xmlns="http://www.w3.org/2000/svg" width="111" height="111" viewBox="0 0 111 111">
    <g fill="none" fill-rule="evenodd">
        <circle cx="55.5" cy="55.5" r="55.5" fill="#7BD02C" opacity=".076"/>
        <circle cx="55.5" cy="55.5" r="37.5" fill="#3399FD"/>
        <g fill="#FFF" fill-rule="nonzero">
            <path d="M71.443 50.35L59.056 37.452a3.197 3.197 0 0 0-4.645 0c-1.15 1.199-1.25 3.027-.4 4.332l-.017.09c-.893 4.65-3.067 8.88-6.288 12.233l-5.681 5.916c-1.284 1.337-1.284 3.5 0 4.837l3.096 3.225a3.191 3.191 0 0 0 4.645 0l.775-.806 5.419 5.642a3.191 3.191 0 0 0 4.645 0c1.28-1.333 1.28-3.503 0-4.836l-2.323-2.419.774-.806c1.284-1.336 1.284-3.5 0-4.836l-.526-.548a22.457 22.457 0 0 1 8.666-3.855l.088-.018a3.191 3.191 0 0 0 4.159-.416c1.28-1.334 1.28-3.503 0-4.837zM48.218 66.472a1.064 1.064 0 0 1-1.548 0l-3.097-3.224a1.173 1.173 0 0 1 0-1.612l5.42-5.643 4.644 4.837-5.419 5.642zm10.838 3.225a1.175 1.175 0 0 1 0 1.612 1.066 1.066 0 0 1-1.548 0l-5.42-5.643 1.55-1.612 5.418 5.643zm-3.87-7.255c.329-.343.821-.868 1.599-1.56l.723.754a1.173 1.173 0 0 1 0 1.612l-.774.806-1.549-1.612zm.046-3.176l-4.738-4.934a26.486 26.486 0 0 0 5.33-10.572l9.56 9.955a24.752 24.752 0 0 0-10.152 5.55zm14.662-5.692a1.064 1.064 0 0 1-1.548 0L55.96 40.676a1.173 1.173 0 0 1 0-1.612 1.064 1.064 0 0 1 1.548 0l12.386 12.898a1.175 1.175 0 0 1 0 1.612z"/>
            <path d="M49.766 60.023a1.064 1.064 0 0 0-1.548 0l-1.548 1.613a1.174 1.174 0 0 0 0 1.612c.427.445 1.12.445 1.548 0l1.548-1.612a1.174 1.174 0 0 0 0-1.613zM64.085 35c-.605 0-1.095.51-1.095 1.14v2.28c0 .63.49 1.14 1.095 1.14.604 0 1.095-.51 1.095-1.14v-2.28c0-.63-.49-1.14-1.095-1.14zM72.843 44.12h-2.19c-.604 0-1.094.51-1.094 1.14 0 .63.49 1.14 1.095 1.14h2.19c.604 0 1.094-.51 1.094-1.14 0-.63-.49-1.14-1.095-1.14zM71.428 37.614a1.064 1.064 0 0 0-1.548 0l-2.19 2.28a1.174 1.174 0 0 0 0 1.612c.427.445 1.12.446 1.548 0l2.19-2.28a1.174 1.174 0 0 0 0-1.612z"/>
        </g>
    </g>
</svg>
